<svg width="34" height="31" viewBox="0 0 34 31" fill="none" xmlns="http://www.w3.org/2000/svg">
<path d="M27.3571 24.2448C25.5137 24.2448 24.0357 25.5419 24.0357 27.1597C24.0357 27.9328 24.3856 28.6742 25.0085 29.2209C25.6314 29.7675 26.4762 30.0746 27.3571 30.0746C28.238 30.0746 29.0829 29.7675 29.7057 29.2209C30.3286 28.6742 30.6786 27.9328 30.6786 27.1597C30.6786 25.5419 29.1839 24.2448 27.3571 24.2448ZM0.785706 0.925385V3.84031H4.10713L10.0857 14.9025L7.82713 18.4732C7.57803 18.8813 7.42856 19.3623 7.42856 19.8724C7.42856 20.6455 7.7785 21.3869 8.40139 21.9336C9.02428 22.4802 9.86909 22.7873 10.75 22.7873H30.6786V19.8724H11.4475C11.3374 19.8724 11.2318 19.834 11.1539 19.7657C11.0761 19.6973 11.0323 19.6047 11.0323 19.508C11.0323 19.4352 11.0489 19.3769 11.0821 19.3331L12.5768 16.9575H24.9491C26.1946 16.9575 27.2907 16.3453 27.8553 15.4563L33.8007 6.0265C33.917 5.79331 34 5.54554 34 5.29777C34 4.91123 33.825 4.54052 33.5136 4.26719C33.2021 3.99386 32.7797 3.84031 32.3393 3.84031H7.77731L6.21624 0.925385M10.75 24.2448C8.9066 24.2448 7.42856 25.5419 7.42856 27.1597C7.42856 27.9328 7.7785 28.6742 8.40139 29.2209C9.02428 29.7675 9.86909 30.0746 10.75 30.0746C11.6309 30.0746 12.4757 29.7675 13.0986 29.2209C13.7215 28.6742 14.0714 27.9328 14.0714 27.1597C14.0714 25.5419 12.5768 24.2448 10.75 24.2448Z" fill="white"/>
</svg>
